<svg width="136" height="32" viewBox="0 0 136 32" fill="none" xmlns="http://www.w3.org/2000/svg">
<path d="M17.0653 16.002H8.53054C6.26771 16.0009 4.09794 15.1573 2.49828 13.6566C0.898615 12.1558 -2.80325e-07 10.1208 0 7.99901H0C0 5.87754 0.898751 3.84296 2.49854 2.34285C4.09832 0.84275 6.2681 0 8.53054 0L34.1264 0L17.0653 16.002Z" fill="white"/>
<path d="M17.0653 16.002H25.5959C27.8583 16.002 30.0281 16.8447 31.6279 18.3448C33.2277 19.8449 34.1264 21.8795 34.1264 24.001C34.1264 26.1224 33.2277 28.157 31.6279 29.6571C30.0281 31.1572 27.8583 32 25.5959 32H0L17.0653 16.002Z" fill="white"/>
<path d="M43.1255 19.0892C44.2441 19.5066 45.4313 19.7398 46.6345 19.7784C47.8156 19.7784 48.8691 19.38 48.8691 18.3961C48.8691 17.683 48.3763 17.201 46.5878 16.8305C44.2513 16.3246 42.6582 15.2889 42.6582 13.4923C42.6582 11.1659 44.8673 10.0146 47.2718 10.0146C48.628 10.0385 49.9649 10.3204 51.2014 10.8432L50.6874 12.8948C49.6354 12.4771 48.5111 12.2422 47.3695 12.2016C46.3414 12.2016 45.4068 12.6398 45.4068 13.4923C45.4068 14.0898 45.8741 14.5758 47.5692 14.9184C50.0714 15.4283 51.5965 16.4401 51.5965 18.3523C51.5965 20.8141 49.2642 21.9654 46.7577 21.9654C45.3296 21.9495 43.9163 21.6917 42.5859 21.2045L43.1255 19.0892Z" fill="white"/>
<path d="M73.5377 21.7582H70.7848V14.9423C70.7848 13.0103 69.7057 12.1817 68.3548 12.1817C67.7211 12.1484 67.0894 12.2736 66.5244 12.5445C65.9593 12.8154 65.4811 13.2222 65.1388 13.7233C65.1643 13.9743 65.1898 14.2293 65.1898 14.4842V21.7582H62.4497V14.6674C62.4497 12.9187 61.3706 12.1817 60.0197 12.1817C59.3548 12.157 58.6952 12.3022 58.1115 12.6018C57.5279 12.9014 57.042 13.3441 56.706 13.8827V21.7582H53.9531V10.2457H56.7018V11.4686L56.8505 11.5364C57.335 11.034 57.9312 10.6374 58.5969 10.3745C59.2627 10.1116 59.9818 9.98873 60.7036 10.0146C61.4505 9.98738 62.192 10.1432 62.855 10.4666C63.518 10.79 64.0797 11.27 64.4846 11.859C65.0529 11.2539 65.7573 10.7747 66.5471 10.4557C67.3368 10.1368 68.1922 9.98612 69.0515 10.0146C71.558 10.0146 73.5462 11.6758 73.5462 14.9423L73.5377 21.7582Z" fill="white"/>
<path d="M85.3918 11.0983L85.5107 11.0505V10.2538H88.2636V21.7663H85.5107V20.5831L85.3663 20.5393C84.8766 21.0233 84.282 21.4032 83.6224 21.6534C82.9628 21.9035 82.2537 22.0181 81.5429 21.9894C78.2504 21.9894 75.625 19.3403 75.625 16.014C75.625 12.6877 78.3524 10.0386 81.7893 10.0386C83.0881 9.96536 84.3703 10.3425 85.3918 11.0983ZM85.5107 18.0735V13.1458C84.5324 12.49 83.3525 12.1515 82.1504 12.1818C80.0857 12.1818 78.3906 13.839 78.3906 16.002C78.3906 18.1651 80.0899 19.8263 82.1504 19.8263C83.5395 19.8263 84.8183 19.3403 85.5277 18.0735H85.5107Z" fill="white"/>
<path d="M91.1875 10.2457H93.9361V11.5523L94.0806 11.5961C94.5117 11.0995 95.0551 10.699 95.6716 10.4234C96.288 10.1478 96.962 10.0041 97.6449 10.0027H97.9847V12.349H97.3985C96.7534 12.3439 96.1139 12.4617 95.5187 12.6952C94.9236 12.9287 94.3852 13.2731 93.9361 13.7074V21.7821H91.1875V10.2457Z" fill="white"/>
<path d="M107.053 19.3641C106.495 19.5525 105.903 19.6391 105.311 19.6191C104.206 19.6191 103.399 19.0414 103.399 17.683V12.3212H106.738V10.2457H103.399V6.57288L100.625 9.1622V17.7747C100.625 20.3998 102.515 21.8738 104.996 21.8738C105.874 21.8939 106.746 21.7277 107.545 21.3878L107.053 19.3641Z" fill="white"/>
<path d="M110.611 5.48142C111.643 5.48142 112.208 6.12676 112.208 6.79202C112.208 7.45727 111.643 8.08269 110.611 8.08269C110.417 8.09732 110.221 8.0753 110.037 8.01792C109.852 7.96055 109.681 7.86899 109.534 7.74867C109.388 7.62834 109.268 7.48168 109.183 7.31737C109.098 7.15305 109.049 6.97442 109.039 6.79202C109.047 6.60809 109.094 6.42755 109.179 6.26118C109.263 6.09481 109.381 5.94603 109.528 5.82371C109.675 5.70138 109.846 5.60803 110.032 5.54923C110.218 5.49042 110.415 5.46736 110.611 5.48142ZM109.26 10.2617H112.013V21.7742H109.26V10.2617Z" fill="white"/>
<path d="M115.126 19.0892C116.246 19.5067 117.435 19.7398 118.64 19.7784C119.816 19.7784 120.874 19.38 120.874 18.3961C120.874 17.683 120.381 17.201 118.589 16.8305C116.273 16.3326 114.701 15.2889 114.701 13.4923C114.701 11.1659 116.911 10.0146 119.315 10.0146C120.671 10.0385 122.008 10.3204 123.245 10.8432L122.726 12.8948C121.676 12.4771 120.553 12.2422 119.413 12.2016C118.385 12.2016 117.45 12.6398 117.45 13.4923C117.45 14.0898 117.917 14.5758 119.608 14.9184C122.115 15.4283 123.636 16.4401 123.636 18.3523C123.636 20.8141 121.303 21.9654 118.801 21.9654C117.372 21.9491 115.957 21.6914 114.625 21.2045L115.126 19.0892Z" fill="white"/>
<path d="M132.254 19.3641C131.696 19.552 131.105 19.6385 130.513 19.6191C129.408 19.6191 128.592 19.0415 128.592 17.6831V12.3212H131.932V10.2458H128.592V6.56494L125.844 9.16223V17.7747C125.844 20.3999 127.734 21.8738 130.215 21.8738C131.093 21.8932 131.964 21.7271 132.764 21.3878L132.254 19.3641Z" fill="white"/>
<path d="M134.601 9.44107C134.413 9.44372 134.226 9.4084 134.053 9.3375C133.887 9.27113 133.735 9.17508 133.607 9.05466C133.48 8.93379 133.378 8.792 133.306 8.63639C133.233 8.47436 133.195 8.30032 133.195 8.1245C133.195 7.94868 133.233 7.77464 133.306 7.61261C133.379 7.46337 133.481 7.32826 133.607 7.21425C133.736 7.0951 133.887 6.99922 134.053 6.93142C134.226 6.86317 134.412 6.828 134.599 6.828C134.787 6.828 134.972 6.86317 135.145 6.93142C135.311 6.99922 135.462 7.0951 135.591 7.21425C135.719 7.32723 135.821 7.46258 135.893 7.61261C136.034 7.94097 136.034 8.30803 135.893 8.63639C135.749 8.95169 135.481 9.20285 135.145 9.3375C134.974 9.40796 134.788 9.44327 134.601 9.44107ZM134.601 9.26978C134.76 9.27263 134.917 9.24473 135.063 9.18783C135.209 9.13092 135.341 9.04625 135.451 8.93914C135.667 8.71591 135.786 8.42418 135.782 8.12251C135.783 7.96981 135.753 7.81836 135.693 7.67635C135.637 7.54252 135.555 7.4196 135.451 7.31384C135.343 7.21293 135.217 7.13185 135.077 7.07483C134.775 6.95797 134.436 6.95797 134.134 7.07483C133.993 7.1308 133.864 7.21198 133.756 7.31384C133.54 7.52971 133.42 7.81462 133.42 8.11056C133.418 8.26593 133.449 8.42019 133.51 8.56468C133.568 8.69821 133.652 8.82094 133.756 8.92719C133.864 9.03025 133.992 9.11276 134.134 9.17019C134.281 9.23184 134.44 9.26569 134.601 9.26978ZM135.302 8.87142H135.094L134.644 8.19421H134.295V8.87142H134.1V7.38953H134.784C134.935 7.37659 135.085 7.41475 135.209 7.49709C135.251 7.53246 135.284 7.57627 135.305 7.62526C135.326 7.67424 135.336 7.72712 135.332 7.77992C135.334 7.84289 135.321 7.90544 135.294 7.96317C135.272 8.01218 135.237 8.05484 135.192 8.08666C135.145 8.11995 135.092 8.14432 135.035 8.15836C134.971 8.1727 134.905 8.18072 134.839 8.18226L135.302 8.87142ZM134.563 8.0508H134.742C134.802 8.05255 134.862 8.04584 134.92 8.03089C134.974 8.01958 135.023 7.99318 135.06 7.9552C135.098 7.90707 135.116 7.84761 135.111 7.78789C135.115 7.74052 135.103 7.69315 135.077 7.65245C135.056 7.61938 135.025 7.593 134.988 7.57676C134.949 7.55653 134.905 7.54431 134.86 7.54091C134.814 7.53695 134.767 7.53695 134.72 7.54091H134.274V8.05877L134.563 8.0508Z" fill="white"/>
</svg>
