<svg width="78" height="67" viewBox="0 0 78 67" fill="none" xmlns="http://www.w3.org/2000/svg">
<path d="M72.3214 0H4.82143C3.54271 0 2.31636 0.503132 1.41216 1.39871C0.50797 2.2943 0 3.50897 0 4.77551V62.0816C0 63.3482 0.50797 64.5628 1.41216 65.4584C2.31636 66.354 3.54271 66.8571 4.82143 66.8571H72.3214C73.6001 66.8571 74.8265 66.354 75.7307 65.4584C76.6349 64.5628 77.1429 63.3482 77.1429 62.0816V4.77551C77.1429 3.50897 76.6349 2.2943 75.7307 1.39871C74.8265 0.503132 73.6001 0 72.3214 0ZM16.6821 9.55102C18.1125 9.55102 19.5108 9.97114 20.7001 10.7582C21.8894 11.5454 22.8164 12.6641 23.3638 13.973C23.9112 15.2819 24.0544 16.7222 23.7753 18.1118C23.4963 19.5013 22.8075 20.7777 21.796 21.7795C20.7846 22.7813 19.496 23.4635 18.0931 23.7399C16.6902 24.0163 15.236 23.8744 13.9145 23.3323C12.593 22.7901 11.4635 21.872 10.6688 20.694C9.87416 19.516 9.45 18.131 9.45 16.7143C9.45 14.8145 10.212 12.9925 11.5682 11.6491C12.9245 10.3057 14.7641 9.55102 16.6821 9.55102ZM9.64286 54.9184V45.1286L24.1071 30.611C24.5588 30.1663 25.1698 29.9167 25.8067 29.9167C26.4436 29.9167 27.0546 30.1663 27.5062 30.611L33.75 36.652L15.2357 54.9184H9.64286ZM67.5 54.9184H22.058L37.0768 40.0427L50.0946 27.1488C50.5463 26.7041 51.1573 26.4544 51.7942 26.4544C52.4311 26.4544 53.0421 26.7041 53.4937 27.1488L67.5 41.0216V54.9184Z" fill="url(#paint0_linear_2385_31381)"/>
<defs>
<linearGradient id="paint0_linear_2385_31381" x1="22.3018" y1="66.4361" x2="22.3018" y2="15.0141" gradientUnits="userSpaceOnUse">
<stop stop-color="#18181C"/>
<stop offset="1" stop-color="#2E2E36"/>
</linearGradient>
</defs>
</svg>
