<svg width="1440" height="960" viewBox="0 0 1440 960" fill="none" xmlns="http://www.w3.org/2000/svg">
<g opacity="0.2">
<circle cx="1" cy="61" r="1" fill="#D9D9D9"/>
<circle cx="68" cy="61" r="1" fill="#D9D9D9"/>
<circle cx="135" cy="61" r="1" fill="#D9D9D9"/>
<circle cx="202" cy="61" r="1" fill="#D9D9D9"/>
<circle cx="269" cy="61" r="1" fill="#D9D9D9"/>
<circle cx="336" cy="61" r="1" fill="#D9D9D9"/>
<circle cx="403" cy="61" r="1" fill="#D9D9D9"/>
<circle cx="470" cy="61" r="1" fill="#D9D9D9"/>
<circle cx="537" cy="61" r="1" fill="#D9D9D9"/>
<circle cx="604" cy="61" r="1" fill="#D9D9D9"/>
<circle cx="671" cy="61" r="1" fill="#D9D9D9"/>
<circle cx="738" cy="61" r="1" fill="#D9D9D9"/>
<circle cx="805" cy="61" r="1" fill="#D9D9D9"/>
<circle cx="872" cy="61" r="1" fill="#D9D9D9"/>
<circle cx="939" cy="61" r="1" fill="#D9D9D9"/>
<circle cx="1006" cy="61" r="1" fill="#D9D9D9"/>
<circle cx="1073" cy="61" r="1" fill="#D9D9D9"/>
<circle cx="1140" cy="61" r="1" fill="#D9D9D9"/>
<circle cx="1207" cy="61" r="1" fill="#D9D9D9"/>
<circle cx="1274" cy="61" r="1" fill="#D9D9D9"/>
<circle cx="1341" cy="61" r="1" fill="#D9D9D9"/>
<circle cx="1408" cy="61" r="1" fill="#D9D9D9"/>
<circle cx="1" cy="128" r="1" fill="#D9D9D9"/>
<circle cx="68" cy="128" r="1" fill="#D9D9D9"/>
<circle cx="135" cy="128" r="1" fill="#D9D9D9"/>
<circle cx="202" cy="128" r="1" fill="#D9D9D9"/>
<circle cx="269" cy="128" r="1" fill="#D9D9D9"/>
<circle cx="336" cy="128" r="1" fill="#D9D9D9"/>
<circle cx="403" cy="128" r="1" fill="#D9D9D9"/>
<circle cx="470" cy="128" r="1" fill="#D9D9D9"/>
<circle cx="537" cy="128" r="1" fill="#D9D9D9"/>
<circle cx="604" cy="128" r="1" fill="#D9D9D9"/>
<circle cx="671" cy="128" r="1" fill="#D9D9D9"/>
<circle cx="738" cy="128" r="1" fill="#D9D9D9"/>
<circle cx="805" cy="128" r="1" fill="#D9D9D9"/>
<circle cx="872" cy="128" r="1" fill="#D9D9D9"/>
<circle cx="939" cy="128" r="1" fill="#D9D9D9"/>
<circle cx="1006" cy="128" r="1" fill="#D9D9D9"/>
<circle cx="1073" cy="128" r="1" fill="#D9D9D9"/>
<circle cx="1140" cy="128" r="1" fill="#D9D9D9"/>
<circle cx="1207" cy="128" r="1" fill="#D9D9D9"/>
<circle cx="1274" cy="128" r="1" fill="#D9D9D9"/>
<circle cx="1341" cy="128" r="1" fill="#D9D9D9"/>
<circle cx="1408" cy="128" r="1" fill="#D9D9D9"/>
<circle cx="1" cy="195" r="1" fill="#D9D9D9"/>
<circle cx="68" cy="195" r="1" fill="#D9D9D9"/>
<circle cx="135" cy="195" r="1" fill="#D9D9D9"/>
<circle cx="202" cy="195" r="1" fill="#D9D9D9"/>
<circle cx="269" cy="195" r="1" fill="#D9D9D9"/>
<circle cx="336" cy="195" r="1" fill="#D9D9D9"/>
<circle cx="403" cy="195" r="1" fill="#D9D9D9"/>
<circle cx="470" cy="195" r="1" fill="#D9D9D9"/>
<circle cx="537" cy="195" r="1" fill="#D9D9D9"/>
<circle cx="604" cy="195" r="1" fill="#D9D9D9"/>
<circle cx="671" cy="195" r="1" fill="#D9D9D9"/>
<circle cx="738" cy="195" r="1" fill="#D9D9D9"/>
<circle cx="805" cy="195" r="1" fill="#D9D9D9"/>
<circle cx="872" cy="195" r="1" fill="#D9D9D9"/>
<circle cx="939" cy="195" r="1" fill="#D9D9D9"/>
<circle cx="1006" cy="195" r="1" fill="#D9D9D9"/>
<circle cx="1073" cy="195" r="1" fill="#D9D9D9"/>
<circle cx="1140" cy="195" r="1" fill="#D9D9D9"/>
<circle cx="1207" cy="195" r="1" fill="#D9D9D9"/>
<circle cx="1274" cy="195" r="1" fill="#D9D9D9"/>
<circle cx="1341" cy="195" r="1" fill="#D9D9D9"/>
<circle cx="1408" cy="195" r="1" fill="#D9D9D9"/>
<circle cx="1" cy="262" r="1" fill="#D9D9D9"/>
<circle cx="68" cy="262" r="1" fill="#D9D9D9"/>
<circle cx="135" cy="262" r="1" fill="#D9D9D9"/>
<circle cx="202" cy="262" r="1" fill="#D9D9D9"/>
<circle cx="269" cy="262" r="1" fill="#D9D9D9"/>
<circle cx="336" cy="262" r="1" fill="#D9D9D9"/>
<circle cx="403" cy="262" r="1" fill="#D9D9D9"/>
<circle cx="470" cy="262" r="1" fill="#D9D9D9"/>
<circle cx="537" cy="262" r="1" fill="#D9D9D9"/>
<circle cx="604" cy="262" r="1" fill="#D9D9D9"/>
<circle cx="671" cy="262" r="1" fill="#D9D9D9"/>
<circle cx="738" cy="262" r="1" fill="#D9D9D9"/>
<circle cx="805" cy="262" r="1" fill="#D9D9D9"/>
<circle cx="872" cy="262" r="1" fill="#D9D9D9"/>
<circle cx="939" cy="262" r="1" fill="#D9D9D9"/>
<circle cx="1006" cy="262" r="1" fill="#D9D9D9"/>
<circle cx="1073" cy="262" r="1" fill="#D9D9D9"/>
<circle cx="1140" cy="262" r="1" fill="#D9D9D9"/>
<circle cx="1207" cy="262" r="1" fill="#D9D9D9"/>
<circle cx="1274" cy="262" r="1" fill="#D9D9D9"/>
<circle cx="1341" cy="262" r="1" fill="#D9D9D9"/>
<circle cx="1408" cy="262" r="1" fill="#D9D9D9"/>
<circle cx="1" cy="329" r="1" fill="#D9D9D9"/>
<circle cx="68" cy="329" r="1" fill="#D9D9D9"/>
<circle cx="135" cy="329" r="1" fill="#D9D9D9"/>
<circle cx="202" cy="329" r="1" fill="#D9D9D9"/>
<circle cx="269" cy="329" r="1" fill="#D9D9D9"/>
<circle cx="336" cy="329" r="1" fill="#D9D9D9"/>
<circle cx="403" cy="329" r="1" fill="#D9D9D9"/>
<circle cx="470" cy="329" r="1" fill="#D9D9D9"/>
<circle cx="537" cy="329" r="1" fill="#D9D9D9"/>
<circle cx="604" cy="329" r="1" fill="#D9D9D9"/>
<circle cx="671" cy="329" r="1" fill="#D9D9D9"/>
<circle cx="738" cy="329" r="1" fill="#D9D9D9"/>
<circle cx="805" cy="329" r="1" fill="#D9D9D9"/>
<circle cx="872" cy="329" r="1" fill="#D9D9D9"/>
<circle cx="939" cy="329" r="1" fill="#D9D9D9"/>
<circle cx="1006" cy="329" r="1" fill="#D9D9D9"/>
<circle cx="1073" cy="329" r="1" fill="#D9D9D9"/>
<circle cx="1140" cy="329" r="1" fill="#D9D9D9"/>
<circle cx="1207" cy="329" r="1" fill="#D9D9D9"/>
<circle cx="1274" cy="329" r="1" fill="#D9D9D9"/>
<circle cx="1341" cy="329" r="1" fill="#D9D9D9"/>
<circle cx="1408" cy="329" r="1" fill="#D9D9D9"/>
<circle cx="1" cy="396" r="1" fill="#D9D9D9"/>
<circle cx="68" cy="396" r="1" fill="#D9D9D9"/>
<circle cx="135" cy="396" r="1" fill="#D9D9D9"/>
<circle cx="202" cy="396" r="1" fill="#D9D9D9"/>
<circle cx="269" cy="396" r="1" fill="#D9D9D9"/>
<circle cx="336" cy="396" r="1" fill="#D9D9D9"/>
<circle cx="403" cy="396" r="1" fill="#D9D9D9"/>
<circle cx="470" cy="396" r="1" fill="#D9D9D9"/>
<circle cx="537" cy="396" r="1" fill="#D9D9D9"/>
<circle cx="604" cy="396" r="1" fill="#D9D9D9"/>
<circle cx="671" cy="396" r="1" fill="#D9D9D9"/>
<circle cx="738" cy="396" r="1" fill="#D9D9D9"/>
<circle cx="805" cy="396" r="1" fill="#D9D9D9"/>
<circle cx="872" cy="396" r="1" fill="#D9D9D9"/>
<circle cx="939" cy="396" r="1" fill="#D9D9D9"/>
<circle cx="1006" cy="396" r="1" fill="#D9D9D9"/>
<circle cx="1073" cy="396" r="1" fill="#D9D9D9"/>
<circle cx="1140" cy="396" r="1" fill="#D9D9D9"/>
<circle cx="1207" cy="396" r="1" fill="#D9D9D9"/>
<circle cx="1274" cy="396" r="1" fill="#D9D9D9"/>
<circle cx="1341" cy="396" r="1" fill="#D9D9D9"/>
<circle cx="1408" cy="396" r="1" fill="#D9D9D9"/>
<circle cx="1" cy="463" r="1" fill="#D9D9D9"/>
<circle cx="68" cy="463" r="1" fill="#D9D9D9"/>
<circle cx="135" cy="463" r="1" fill="#D9D9D9"/>
<circle cx="202" cy="463" r="1" fill="#D9D9D9"/>
<circle cx="269" cy="463" r="1" fill="#D9D9D9"/>
<circle cx="336" cy="463" r="1" fill="#D9D9D9"/>
<circle cx="403" cy="463" r="1" fill="#D9D9D9"/>
<circle cx="470" cy="463" r="1" fill="#D9D9D9"/>
<circle cx="537" cy="463" r="1" fill="#D9D9D9"/>
<circle cx="604" cy="463" r="1" fill="#D9D9D9"/>
<circle cx="671" cy="463" r="1" fill="#D9D9D9"/>
<circle cx="738" cy="463" r="1" fill="#D9D9D9"/>
<circle cx="805" cy="463" r="1" fill="#D9D9D9"/>
<circle cx="872" cy="463" r="1" fill="#D9D9D9"/>
<circle cx="939" cy="463" r="1" fill="#D9D9D9"/>
<circle cx="1006" cy="463" r="1" fill="#D9D9D9"/>
<circle cx="1073" cy="463" r="1" fill="#D9D9D9"/>
<circle cx="1140" cy="463" r="1" fill="#D9D9D9"/>
<circle cx="1207" cy="463" r="1" fill="#D9D9D9"/>
<circle cx="1274" cy="463" r="1" fill="#D9D9D9"/>
<circle cx="1341" cy="463" r="1" fill="#D9D9D9"/>
<circle cx="1408" cy="463" r="1" fill="#D9D9D9"/>
<circle cx="1" cy="530" r="1" fill="#D9D9D9"/>
<circle cx="68" cy="530" r="1" fill="#D9D9D9"/>
<circle cx="135" cy="530" r="1" fill="#D9D9D9"/>
<circle cx="202" cy="530" r="1" fill="#D9D9D9"/>
<circle cx="269" cy="530" r="1" fill="#D9D9D9"/>
<circle cx="336" cy="530" r="1" fill="#D9D9D9"/>
<circle cx="403" cy="530" r="1" fill="#D9D9D9"/>
<circle cx="470" cy="530" r="1" fill="#D9D9D9"/>
<circle cx="537" cy="530" r="1" fill="#D9D9D9"/>
<circle cx="604" cy="530" r="1" fill="#D9D9D9"/>
<circle cx="671" cy="530" r="1" fill="#D9D9D9"/>
<circle cx="738" cy="530" r="1" fill="#D9D9D9"/>
<circle cx="805" cy="530" r="1" fill="#D9D9D9"/>
<circle cx="872" cy="530" r="1" fill="#D9D9D9"/>
<circle cx="939" cy="530" r="1" fill="#D9D9D9"/>
<circle cx="1006" cy="530" r="1" fill="#D9D9D9"/>
<circle cx="1073" cy="530" r="1" fill="#D9D9D9"/>
<circle cx="1140" cy="530" r="1" fill="#D9D9D9"/>
<circle cx="1207" cy="530" r="1" fill="#D9D9D9"/>
<circle cx="1274" cy="530" r="1" fill="#D9D9D9"/>
<circle cx="1341" cy="530" r="1" fill="#D9D9D9"/>
<circle cx="1408" cy="530" r="1" fill="#D9D9D9"/>
<circle cx="1" cy="597" r="1" fill="#D9D9D9"/>
<circle cx="68" cy="597" r="1" fill="#D9D9D9"/>
<circle cx="135" cy="597" r="1" fill="#D9D9D9"/>
<circle cx="202" cy="597" r="1" fill="#D9D9D9"/>
<circle cx="269" cy="597" r="1" fill="#D9D9D9"/>
<circle cx="336" cy="597" r="1" fill="#D9D9D9"/>
<circle cx="403" cy="597" r="1" fill="#D9D9D9"/>
<circle cx="470" cy="597" r="1" fill="#D9D9D9"/>
<circle cx="537" cy="597" r="1" fill="#D9D9D9"/>
<circle cx="604" cy="597" r="1" fill="#D9D9D9"/>
<circle cx="671" cy="597" r="1" fill="#D9D9D9"/>
<circle cx="738" cy="597" r="1" fill="#D9D9D9"/>
<circle cx="805" cy="597" r="1" fill="#D9D9D9"/>
<circle cx="872" cy="597" r="1" fill="#D9D9D9"/>
<circle cx="939" cy="597" r="1" fill="#D9D9D9"/>
<circle cx="1006" cy="597" r="1" fill="#D9D9D9"/>
<circle cx="1073" cy="597" r="1" fill="#D9D9D9"/>
<circle cx="1140" cy="597" r="1" fill="#D9D9D9"/>
<circle cx="1207" cy="597" r="1" fill="#D9D9D9"/>
<circle cx="1274" cy="597" r="1" fill="#D9D9D9"/>
<circle cx="1341" cy="597" r="1" fill="#D9D9D9"/>
<circle cx="1408" cy="597" r="1" fill="#D9D9D9"/>
<circle cx="1" cy="664" r="1" fill="#D9D9D9"/>
<circle cx="68" cy="664" r="1" fill="#D9D9D9"/>
<circle cx="135" cy="664" r="1" fill="#D9D9D9"/>
<circle cx="202" cy="664" r="1" fill="#D9D9D9"/>
<circle cx="269" cy="664" r="1" fill="#D9D9D9"/>
<circle cx="336" cy="664" r="1" fill="#D9D9D9"/>
<circle cx="403" cy="664" r="1" fill="#D9D9D9"/>
<circle cx="470" cy="664" r="1" fill="#D9D9D9"/>
<circle cx="537" cy="664" r="1" fill="#D9D9D9"/>
<circle cx="604" cy="664" r="1" fill="#D9D9D9"/>
<circle cx="671" cy="664" r="1" fill="#D9D9D9"/>
<circle cx="738" cy="664" r="1" fill="#D9D9D9"/>
<circle cx="805" cy="664" r="1" fill="#D9D9D9"/>
<circle cx="872" cy="664" r="1" fill="#D9D9D9"/>
<circle cx="939" cy="664" r="1" fill="#D9D9D9"/>
<circle cx="1006" cy="664" r="1" fill="#D9D9D9"/>
<circle cx="1073" cy="664" r="1" fill="#D9D9D9"/>
<circle cx="1140" cy="664" r="1" fill="#D9D9D9"/>
<circle cx="1207" cy="664" r="1" fill="#D9D9D9"/>
<circle cx="1274" cy="664" r="1" fill="#D9D9D9"/>
<circle cx="1341" cy="664" r="1" fill="#D9D9D9"/>
<circle cx="1408" cy="664" r="1" fill="#D9D9D9"/>
<circle cx="1" cy="731" r="1" fill="#D9D9D9"/>
<circle cx="68" cy="731" r="1" fill="#D9D9D9"/>
<circle cx="135" cy="731" r="1" fill="#D9D9D9"/>
<circle cx="202" cy="731" r="1" fill="#D9D9D9"/>
<circle cx="269" cy="731" r="1" fill="#D9D9D9"/>
<circle cx="336" cy="731" r="1" fill="#D9D9D9"/>
<circle cx="403" cy="731" r="1" fill="#D9D9D9"/>
<circle cx="470" cy="731" r="1" fill="#D9D9D9"/>
<circle cx="537" cy="731" r="1" fill="#D9D9D9"/>
<circle cx="604" cy="731" r="1" fill="#D9D9D9"/>
<circle cx="671" cy="731" r="1" fill="#D9D9D9"/>
<circle cx="738" cy="731" r="1" fill="#D9D9D9"/>
<circle cx="805" cy="731" r="1" fill="#D9D9D9"/>
<circle cx="872" cy="731" r="1" fill="#D9D9D9"/>
<circle cx="939" cy="731" r="1" fill="#D9D9D9"/>
<circle cx="1006" cy="731" r="1" fill="#D9D9D9"/>
<circle cx="1073" cy="731" r="1" fill="#D9D9D9"/>
<circle cx="1140" cy="731" r="1" fill="#D9D9D9"/>
<circle cx="1207" cy="731" r="1" fill="#D9D9D9"/>
<circle cx="1274" cy="731" r="1" fill="#D9D9D9"/>
<circle cx="1341" cy="731" r="1" fill="#D9D9D9"/>
<circle cx="1408" cy="731" r="1" fill="#D9D9D9"/>
<circle cx="1" cy="798" r="1" fill="#D9D9D9"/>
<circle cx="68" cy="798" r="1" fill="#D9D9D9"/>
<circle cx="135" cy="798" r="1" fill="#D9D9D9"/>
<circle cx="202" cy="798" r="1" fill="#D9D9D9"/>
<circle cx="269" cy="798" r="1" fill="#D9D9D9"/>
<circle cx="336" cy="798" r="1" fill="#D9D9D9"/>
<circle cx="403" cy="798" r="1" fill="#D9D9D9"/>
<circle cx="470" cy="798" r="1" fill="#D9D9D9"/>
<circle cx="537" cy="798" r="1" fill="#D9D9D9"/>
<circle cx="604" cy="798" r="1" fill="#D9D9D9"/>
<circle cx="671" cy="798" r="1" fill="#D9D9D9"/>
<circle cx="738" cy="798" r="1" fill="#D9D9D9"/>
<circle cx="805" cy="798" r="1" fill="#D9D9D9"/>
<circle cx="872" cy="798" r="1" fill="#D9D9D9"/>
<circle cx="939" cy="798" r="1" fill="#D9D9D9"/>
<circle cx="1006" cy="798" r="1" fill="#D9D9D9"/>
<circle cx="1073" cy="798" r="1" fill="#D9D9D9"/>
<circle cx="1140" cy="798" r="1" fill="#D9D9D9"/>
<circle cx="1207" cy="798" r="1" fill="#D9D9D9"/>
<circle cx="1274" cy="798" r="1" fill="#D9D9D9"/>
<circle cx="1341" cy="798" r="1" fill="#D9D9D9"/>
<circle cx="1408" cy="798" r="1" fill="#D9D9D9"/>
<circle cx="1" cy="865" r="1" fill="#D9D9D9"/>
<circle cx="68" cy="865" r="1" fill="#D9D9D9"/>
<circle cx="135" cy="865" r="1" fill="#D9D9D9"/>
<circle cx="202" cy="865" r="1" fill="#D9D9D9"/>
<circle cx="269" cy="865" r="1" fill="#D9D9D9"/>
<circle cx="336" cy="865" r="1" fill="#D9D9D9"/>
<circle cx="403" cy="865" r="1" fill="#D9D9D9"/>
<circle cx="470" cy="865" r="1" fill="#D9D9D9"/>
<circle cx="537" cy="865" r="1" fill="#D9D9D9"/>
<circle cx="604" cy="865" r="1" fill="#D9D9D9"/>
<circle cx="671" cy="865" r="1" fill="#D9D9D9"/>
<circle cx="738" cy="865" r="1" fill="#D9D9D9"/>
<circle cx="805" cy="865" r="1" fill="#D9D9D9"/>
<circle cx="872" cy="865" r="1" fill="#D9D9D9"/>
<circle cx="939" cy="865" r="1" fill="#D9D9D9"/>
<circle cx="1006" cy="865" r="1" fill="#D9D9D9"/>
<circle cx="1073" cy="865" r="1" fill="#D9D9D9"/>
<circle cx="1140" cy="865" r="1" fill="#D9D9D9"/>
<circle cx="1207" cy="865" r="1" fill="#D9D9D9"/>
<circle cx="1274" cy="865" r="1" fill="#D9D9D9"/>
<circle cx="1341" cy="865" r="1" fill="#D9D9D9"/>
<circle cx="1408" cy="865" r="1" fill="#D9D9D9"/>
<circle cx="1" cy="932" r="1" fill="#D9D9D9"/>
<circle cx="68" cy="932" r="1" fill="#D9D9D9"/>
<circle cx="135" cy="932" r="1" fill="#D9D9D9"/>
<circle cx="202" cy="932" r="1" fill="#D9D9D9"/>
<circle cx="269" cy="932" r="1" fill="#D9D9D9"/>
<circle cx="336" cy="932" r="1" fill="#D9D9D9"/>
<circle cx="403" cy="932" r="1" fill="#D9D9D9"/>
<circle cx="470" cy="932" r="1" fill="#D9D9D9"/>
<circle cx="537" cy="932" r="1" fill="#D9D9D9"/>
<circle cx="604" cy="932" r="1" fill="#D9D9D9"/>
<circle cx="671" cy="932" r="1" fill="#D9D9D9"/>
<circle cx="738" cy="932" r="1" fill="#D9D9D9"/>
<circle cx="805" cy="932" r="1" fill="#D9D9D9"/>
<circle cx="872" cy="932" r="1" fill="#D9D9D9"/>
<circle cx="939" cy="932" r="1" fill="#D9D9D9"/>
<circle cx="1006" cy="932" r="1" fill="#D9D9D9"/>
<circle cx="1073" cy="932" r="1" fill="#D9D9D9"/>
<circle cx="1140" cy="932" r="1" fill="#D9D9D9"/>
<circle cx="1207" cy="932" r="1" fill="#D9D9D9"/>
<circle cx="1274" cy="932" r="1" fill="#D9D9D9"/>
<circle cx="1341" cy="932" r="1" fill="#D9D9D9"/>
<circle cx="1408" cy="932" r="1" fill="#D9D9D9"/>
</g>
</svg>
