<svg width="24" height="24" viewBox="0 0 24 24" fill="none" xmlns="http://www.w3.org/2000/svg">
<g filter="url(#filter0_d_2385_31359)">
<path d="M6.25105 12.2667C6.56004 11.9423 7.04624 11.9173 7.38249 12.1919L7.46324 12.2667L11.1429 16.198L11.1429 5.70313C11.1429 5.20607 11.5266 4.80313 12 4.80313C12.4396 4.80313 12.8019 5.15056 12.8514 5.59817L12.8571 5.70313L12.8571 16.198L16.5368 12.2667C16.8458 11.9423 17.3319 11.9173 17.6682 12.1919L17.7489 12.2667C18.0579 12.5912 18.0817 13.1017 17.8203 13.4547L17.7489 13.5395L12.6061 18.9395C12.2971 19.264 11.8109 19.2889 11.4747 19.0144L11.3939 18.9395L6.25105 13.5395C5.91632 13.1881 5.91632 12.6182 6.25105 12.2667Z" fill="white"/>
</g>
<defs>
<filter id="filter0_d_2385_31359" x="3.6" y="4.8031" width="16.8" height="19.2" filterUnits="userSpaceOnUse" color-interpolation-filters="sRGB">
<feFlood flood-opacity="0" result="BackgroundImageFix"/>
<feColorMatrix in="SourceAlpha" type="matrix" values="0 0 0 0 0 0 0 0 0 0 0 0 0 0 0 0 0 0 127 0" result="hardAlpha"/>
<feOffset dy="2.4"/>
<feGaussianBlur stdDeviation="1.2"/>
<feComposite in2="hardAlpha" operator="out"/>
<feColorMatrix type="matrix" values="0 0 0 0 0 0 0 0 0 0 0 0 0 0 0 0 0 0 0.1 0"/>
<feBlend mode="normal" in2="BackgroundImageFix" result="effect1_dropShadow_2385_31359"/>
<feBlend mode="normal" in="SourceGraphic" in2="effect1_dropShadow_2385_31359" result="shape"/>
</filter>
</defs>
</svg>
