<svg width="24" height="24" viewBox="0 0 24 24" fill="none" xmlns="http://www.w3.org/2000/svg">
<path d="M7 12C7 11.8482 7.02469 11.7072 7.07407 11.5771C7.13051 11.4398 7.21869 11.3133 7.33862 11.1976L15.2116 3.31446C15.4092 3.10482 15.6526 3 15.9418 3C16.1393 3 16.3157 3.04699 16.4709 3.14097C16.6332 3.23494 16.7601 3.36145 16.8519 3.52048C16.9506 3.67952 17 3.86386 17 4.0735C17 4.36265 16.8942 4.61566 16.6825 4.83253L9.5291 12L16.6825 19.1675C16.8942 19.3843 17 19.6374 17 19.9265C17 20.1289 16.9506 20.3096 16.8519 20.4687C16.7601 20.6349 16.6332 20.7651 16.4709 20.859C16.3157 20.953 16.1393 21 15.9418 21C15.6526 21 15.4092 20.8952 15.2116 20.6855L7.33862 12.8024C7.21869 12.6867 7.13051 12.5639 7.07407 12.4337C7.02469 12.2964 7 12.1518 7 12Z" fill="white"/>
</svg>
