<svg width="24" height="24" viewBox="0 0 24 24" fill="none" xmlns="http://www.w3.org/2000/svg">
<path d="M17.6535 6.34313C18.044 6.73365 18.044 7.36681 17.6535 7.75734L13.4108 12L17.6535 16.2426C18.044 16.6331 18.044 17.2663 17.6535 17.6568C17.263 18.0474 16.6298 18.0474 16.2393 17.6568L11.9966 13.4142L7.75398 17.6568C7.36346 18.0474 6.73029 18.0474 6.33977 17.6568C5.94924 17.2663 5.94924 16.6331 6.33977 16.2426L10.5824 12L6.33977 7.75734C5.94924 7.36681 5.94924 6.73365 6.33977 6.34313C6.73029 5.9526 7.36346 5.9526 7.75398 6.34313L11.9966 10.5858L16.2393 6.34313C16.6298 5.9526 17.263 5.9526 17.6535 6.34313Z" fill="#959BA4"/>
</svg>
