<svg width="24" height="24" viewBox="0 0 24 24" fill="none" xmlns="http://www.w3.org/2000/svg">
<g clip-path="url(#clip0_2385_30929)">
<path d="M22.875 18H20.25V5.625C20.25 4.59375 19.4062 3.75 18.375 3.75H7.5V6H18V22.875C18 23.4844 18.5156 24 19.125 24C19.7344 24 20.25 23.4844 20.25 22.875V20.25H22.875C23.4844 20.25 24 19.7344 24 19.125C24 18.5156 23.4844 18 22.875 18ZM6 18V1.125C6 0.515625 5.48438 0 4.875 0C4.26562 0 3.75 0.515625 3.75 1.125V3.75H1.125C0.515625 3.75 0 4.26562 0 4.875C0 5.48438 0.515625 6 1.125 6H3.75V18.375C3.75 19.4062 4.59375 20.25 5.625 20.25H16.5V18H6Z" fill="#EAEAEB"/>
</g>
<defs>
<clipPath id="clip0_2385_30929">
<rect width="24" height="24" fill="white"/>
</clipPath>
</defs>
</svg>
