<svg width="3" height="12" viewBox="0 0 3 12" fill="none" xmlns="http://www.w3.org/2000/svg">
<path d="M1.19844 9.6C1.86118 9.6 2.39844 10.1373 2.39844 10.8C2.39844 11.4627 1.86118 12 1.19844 12C0.535696 12 -0.00156264 11.4627 -0.0015627 10.8C-0.00156276 10.1373 0.535695 9.6 1.19844 9.6Z" fill="white"/>
<path d="M1.19844 4.8C1.86118 4.8 2.39844 5.33726 2.39844 6C2.39844 6.66274 1.86118 7.2 1.19844 7.2C0.535695 7.2 -0.00156306 6.66274 -0.00156312 6C-0.00156318 5.33726 0.535695 4.8 1.19844 4.8Z" fill="white"/>
<path d="M1.19844 1.04907e-07C1.86118 4.69686e-08 2.39844 0.537258 2.39844 1.2C2.39844 1.86274 1.86118 2.4 1.19844 2.4C0.535695 2.4 -0.00156348 1.86274 -0.00156354 1.2C-0.0015636 0.537258 0.535695 1.62846e-07 1.19844 1.04907e-07Z" fill="white"/>
</svg>
