<svg width="24" height="24" viewBox="0 0 24 24" fill="none" xmlns="http://www.w3.org/2000/svg">
<path fill-rule="evenodd" clip-rule="evenodd" d="M1 12C1 5.92487 5.92487 1 12 1C18.0751 1 23 5.92487 23 12C23 18.0751 18.0751 23 12 23C5.92487 23 1 18.0751 1 12ZM16.2787 8.83156C16.5741 8.53991 16.5741 8.06706 16.2787 7.77542C15.9833 7.48377 15.5044 7.48377 15.2091 7.77542L12.0002 10.9438L8.79137 7.77542C8.496 7.48377 8.01712 7.48377 7.72175 7.77542C7.42638 8.06706 7.42638 8.53991 7.72175 8.83156L10.9306 12L7.72175 15.1684C7.42638 15.46 7.42638 15.9329 7.72175 16.2245C8.01712 16.5162 8.496 16.5162 8.79137 16.2245L12.0002 13.0561L15.2091 16.2245C15.5044 16.5162 15.9833 16.5162 16.2787 16.2245C16.5741 15.9329 16.5741 15.46 16.2787 15.1684L13.0698 12L16.2787 8.83156Z" fill="#D94F74"/>
</svg>
