<svg width="24" height="24" viewBox="0 0 24 24" fill="none" xmlns="http://www.w3.org/2000/svg">
<path d="M20.3984 7.20094C20.3984 5.76694 19.5548 4.54054 18.3416 3.96094L14.75 7.55254C14.5244 7.77814 14.3984 8.08294 14.3984 8.40094V15.6009C14.3984 15.9189 14.5244 16.2249 14.75 16.4493L18.3416 20.0409C19.5548 19.4613 20.3984 18.2349 20.3984 16.8009V7.20094Z" fill="#959BA4"/>
<path d="M3.60156 12H10.8016" stroke="#959BA4" stroke-width="2" stroke-linecap="round" stroke-linejoin="round"/>
<path d="M8.92969 18.6544C9.56089 19.6972 10.6937 20.4016 12.0017 20.4016H16.8017C18.7901 20.4016 20.4017 18.79 20.4017 16.8016V7.20156C20.4017 5.21316 18.7901 3.60156 16.8017 3.60156H12.0017C10.6949 3.60156 9.56209 4.30356 8.93209 5.34516" stroke="#959BA4" stroke-width="2" stroke-linecap="round" stroke-linejoin="round"/>
<path d="M6.90156 9L3.60156 12L6.90156 15" stroke="#959BA4" stroke-width="2" stroke-linecap="round" stroke-linejoin="round"/>
</svg>
