<svg width="68" height="68" viewBox="0 0 68 68" fill="none" xmlns="http://www.w3.org/2000/svg">
<path d="M45.9031 20.4031H34.0031L28.2129 11.7161C27.5839 10.7709 26.5197 10.2031 25.3841 10.2031H15.3031C12.4879 10.2031 10.2031 12.4879 10.2031 15.3031V47.6031C10.2031 50.2585 11.2197 52.6725 12.8857 54.4881C12.0221 53.0601 11.6447 51.3227 12.0425 49.5275L15.8199 32.5275C16.5101 29.4165 19.2709 27.2031 22.4567 27.2031H51.0031V25.5031C51.0031 22.6879 48.7183 20.4031 45.9031 20.4031Z" fill="#4A4A55" stroke="#4A4A55" stroke-width="2" stroke-linecap="round" stroke-linejoin="round"/>
<path d="M47.7401 57.8031H18.6769C14.3283 57.8031 11.0949 53.7741 12.0401 49.5275L15.8175 32.5275C16.5077 29.4165 19.2685 27.2031 22.4543 27.2031H51.5175C55.8661 27.2031 59.0995 31.2321 58.1543 35.4787L54.3769 52.4787C53.6867 55.5897 50.9259 57.8031 47.7401 57.8031Z" stroke="#4A4A55" stroke-width="2" stroke-linecap="round" stroke-linejoin="round"/>
</svg>
