<svg width="24" height="24" viewBox="0 0 24 24" fill="none" xmlns="http://www.w3.org/2000/svg">
<path opacity="0.987" fill-rule="evenodd" clip-rule="evenodd" d="M11.0661 3.7906C11.9236 3.6948 12.431 3.6948 13.3524 3.7906C14.9833 4.03199 16.4952 4.78586 17.6694 5.94318C16.8759 6.6932 16.0928 7.45417 15.3204 8.22587C13.8412 6.97216 12.1901 6.68279 10.3671 7.35774C9.02985 7.97276 8.09864 8.96941 7.57351 10.3477C6.71536 9.70882 5.86839 9.05506 5.03299 8.38672C4.97493 8.35616 4.90862 8.34497 4.84375 8.35478C6.17078 5.79613 8.24451 4.27434 11.0649 3.78942" fill="#F44336"/>
<path opacity="0.997" fill-rule="evenodd" clip-rule="evenodd" d="M4.83911 8.35533C4.90613 8.34508 4.9696 8.35573 5.02953 8.38727C5.86493 9.05561 6.7119 9.70937 7.57005 10.3482C7.43501 10.8853 7.34989 11.4336 7.31576 11.9863C7.34493 12.5209 7.4297 13.0457 7.57005 13.5606L4.90298 15.6836C3.74153 13.2566 3.72024 10.8139 4.83911 8.35533Z" fill="#FFC107"/>
<path opacity="0.999" fill-rule="evenodd" clip-rule="evenodd" d="M17.5375 18.2555C16.707 17.5231 15.8376 16.8362 14.9331 16.1976C15.8398 15.5573 16.3902 14.6789 16.5842 13.5624H12.1406V10.4767C14.7032 10.4554 17.2646 10.4771 19.8249 10.5417C20.3106 13.1792 19.7496 15.5573 18.1418 17.676C17.9507 17.8792 17.7482 18.0726 17.5375 18.2555Z" fill="#448AFF"/>
<path opacity="0.993" fill-rule="evenodd" clip-rule="evenodd" d="M7.57332 13.5625C8.54317 15.9729 10.3212 17.0981 12.9075 16.938C13.6335 16.854 14.3295 16.6004 14.9394 16.1976C15.8446 16.8379 16.7127 17.5239 17.5438 18.2556C16.227 19.4389 14.5481 20.141 12.7809 20.2473C12.3794 20.2794 11.976 20.2794 11.5745 20.2473C8.56406 19.8925 6.3413 18.3715 4.90625 15.6843L7.57332 13.5625Z" fill="#43A047"/>
</svg>
