<svg xmlns="http://www.w3.org/2000/svg" width="24" height="24" viewBox="0 0 24 24" fill="none">
  <path d="M9.33301 4C10.3147 4 11.1111 4.7957 11.1113 5.77734V9.33301C11.1113 10.3148 10.3148 11.1113 9.33301 11.1113H5.77734C4.7957 11.1111 4 10.3147 4 9.33301V5.77734C4.00023 4.79585 4.79585 4.00023 5.77734 4H9.33301ZM5.78125 5.78125V9.33691H9.33691V5.78125H5.78125Z" fill="white"/>
  <path d="M9.33301 12.8906C10.3148 12.8906 11.1113 13.6871 11.1113 14.6689V18.2246C11.1111 19.2062 10.3147 20.002 9.33301 20.002H5.77734C4.79585 20.0017 4.00023 19.2061 4 18.2246V14.6689C4 13.6873 4.7957 12.8909 5.77734 12.8906H9.33301ZM5.78125 14.6719V18.2275H9.33691V14.6719H5.78125Z" fill="white"/>
  <path d="M18.2246 4C19.2061 4.00023 20.0017 4.79585 20.002 5.77734V9.33301C20.002 10.3147 19.2062 11.1111 18.2246 11.1113H14.6689C13.6871 11.1113 12.8906 10.3148 12.8906 9.33301V5.77734C12.8909 4.7957 13.6873 4 14.6689 4H18.2246ZM14.6719 5.78125V9.33691H18.2275V5.78125H14.6719Z" fill="white"/>
  <path d="M18.2246 12.8906C19.2062 12.8909 20.002 13.6873 20.002 14.6689V18.2246C20.0017 19.2061 19.2061 20.0017 18.2246 20.002H14.6689C13.6873 20.002 12.8909 19.2062 12.8906 18.2246V14.6689C12.8906 13.6871 13.6871 12.8906 14.6689 12.8906H18.2246ZM14.6719 14.6719V18.2275H18.2275V14.6719H14.6719Z" fill="white"/>
</svg>