<svg width="24" height="24" viewBox="0 0 24 24" fill="none" xmlns="http://www.w3.org/2000/svg">
<path d="M18.2227 4C19.2042 4.00023 19.9998 4.79585 20 5.77734V9.33301C20 10.3147 19.2043 11.1111 18.2227 11.1113H5.77734C4.7957 11.1111 4 10.3147 4 9.33301V5.77734C4.00023 4.79585 4.79585 4.00023 5.77734 4H18.2227ZM5.78125 5.78125V9.33691H18.2256V5.78125H5.78125Z" fill="white"/>
<path d="M18.2227 12.8906C19.2043 12.8909 20 13.6873 20 14.6689V18.2246C19.9998 19.2061 19.2042 20.0017 18.2227 20.002H5.77734C4.79585 20.0017 4.00023 19.2061 4 18.2246V14.6689C4 13.6873 4.7957 12.8909 5.77734 12.8906H18.2227ZM5.78125 14.6719V18.2275H18.2256V14.6719H5.78125Z" fill="white"/>
</svg>
