<svg width="20" height="20" viewBox="0 0 20 20" fill="none" xmlns="http://www.w3.org/2000/svg">
<path d="M10 17.75C5.71979 17.75 2.25 14.2802 2.25 10C2.25 5.71979 5.71979 2.25 10 2.25C14.2802 2.25 17.75 5.71979 17.75 10C17.75 14.2802 14.2802 17.75 10 17.75ZM10 11.75C10.6902 11.75 11.2498 11.1902 11.25 10.5L11.25 6C11.25 5.30965 10.6904 4.75 10 4.75C9.30971 4.75008 8.75 5.3097 8.75 6L8.75 10.5C8.75021 11.1901 9.30984 11.7499 10 11.75ZM10.001 15.498C10.8292 15.4978 11.501 14.8263 11.501 13.998C11.5007 13.1699 10.8291 12.4982 10.001 12.498C9.17269 12.498 8.50121 13.1698 8.50098 13.998C8.50098 14.8265 9.17255 15.498 10.001 15.498Z" fill="#D94F74" stroke="url(#paint0_linear_2385_33303)" stroke-width="0.5"/>
<defs>
<linearGradient id="paint0_linear_2385_33303" x1="10" y1="18" x2="10" y2="2" gradientUnits="userSpaceOnUse">
<stop stop-color="white" stop-opacity="0.2"/>
<stop offset="1" stop-color="white" stop-opacity="0"/>
</linearGradient>
</defs>
</svg>
