<svg width="24" height="24" viewBox="0 0 24 24" fill="none" xmlns="http://www.w3.org/2000/svg">
<path d="M8.80469 10.833V6.22607C8.80469 4.53418 9.88867 3.35498 11.4707 3.35498C13.0454 3.35498 14.1294 4.53418 14.1294 6.22607V10.833C14.1294 12.5176 13.0454 13.7041 11.4707 13.7041C9.88867 13.7041 8.80469 12.5176 8.80469 10.833ZM9.91064 10.833C9.91064 11.917 10.5332 12.6128 11.4707 12.6128C12.4082 12.6128 13.0234 11.917 13.0234 10.833V6.22607C13.0234 5.14209 12.4082 4.44629 11.4707 4.44629C10.5332 4.44629 9.91064 5.14209 9.91064 6.22607V10.833ZM8.19678 19.0288C7.88916 19.0288 7.64014 18.7871 7.64014 18.4795C7.64014 18.1719 7.88916 17.9229 8.19678 17.9229H10.9141V16.209C8.10156 15.9819 6.22656 13.9604 6.22656 11.0967V9.60986C6.22656 9.30225 6.46826 9.06055 6.77588 9.06055C7.09082 9.06055 7.33252 9.30225 7.33252 9.60986V11.0527C7.33252 13.5503 8.9585 15.2056 11.4707 15.2056C13.9756 15.2056 15.6016 13.5503 15.6016 11.0527V9.60986C15.6016 9.30225 15.8506 9.06055 16.1582 9.06055C16.4658 9.06055 16.7075 9.30225 16.7075 9.60986V11.0967C16.7075 13.9604 14.8325 15.9819 12.02 16.209V17.9229H14.7373C15.0449 17.9229 15.2939 18.1719 15.2939 18.4795C15.2939 18.7871 15.0449 19.0288 14.7373 19.0288H8.19678Z" fill="#959BA4"/>
</svg>
