<svg width="16" height="16" viewBox="0 0 16 16" fill="none" xmlns="http://www.w3.org/2000/svg">
<path d="M7.99707 2.66675C8.36526 2.66675 8.66406 2.96555 8.66406 3.33374V7.33374L12.6641 7.33374C13.0321 7.33374 13.3309 7.63172 13.3311 7.99976C13.3311 8.36795 13.0323 8.66675 12.6641 8.66675H8.66406V12.6667C8.66406 13.0349 8.36526 13.3337 7.99707 13.3337C7.62903 13.3336 7.33106 13.0348 7.33105 12.6667L7.33105 8.66675H3.33105C2.96286 8.66675 2.66406 8.36795 2.66406 7.99976C2.66424 7.63172 2.96297 7.33374 3.33105 7.33374H7.33105V3.33374C7.33105 2.96566 7.62903 2.66692 7.99707 2.66675Z" fill="white"/>
<mask id="mask0_2638_505" style="mask-type:luminance" maskUnits="userSpaceOnUse" x="2" y="2" width="12" height="12">
<path d="M7.99707 2.66675C8.36526 2.66675 8.66406 2.96555 8.66406 3.33374V7.33374L12.6641 7.33374C13.0321 7.33374 13.3309 7.63172 13.3311 7.99976C13.3311 8.36795 13.0323 8.66675 12.6641 8.66675H8.66406V12.6667C8.66406 13.0349 8.36526 13.3337 7.99707 13.3337C7.62903 13.3336 7.33106 13.0348 7.33105 12.6667L7.33105 8.66675H3.33105C2.96286 8.66675 2.66406 8.36795 2.66406 7.99976C2.66424 7.63172 2.96297 7.33374 3.33105 7.33374H7.33105V3.33374C7.33105 2.96566 7.62903 2.66692 7.99707 2.66675Z" fill="white"/>
</mask>
<g mask="url(#mask0_2638_505)">
<rect width="16" height="16" fill="white"/>
</g>
</svg>
