<svg width="24" height="24" viewBox="0 0 24 24" fill="none" xmlns="http://www.w3.org/2000/svg">
<path d="M1.99219 12H21.9922" stroke="#959BA4" stroke-width="2" stroke-linecap="round"/>
<path d="M21 16L20.9932 16.2568C20.8638 18.8138 18.8138 20.8638 16.2568 20.9932L16 21H8C5.32472 21 3.14053 18.8989 3.00684 16.2568L3 16V11.0078H5V16C5 17.6569 6.34315 19 8 19H16C17.6569 19 19 17.6569 19 16V11.0078H21V16ZM16.2568 3.00684C18.8989 3.14053 21 5.32472 21 8V9.00781H19V8C19 6.34315 17.6569 5 16 5H8C6.34315 5 5 6.34315 5 8V9.00781H3V8C3 5.23858 5.23858 3 8 3H16L16.2568 3.00684Z" fill="#959BA4"/>
<rect x="7.00781" y="15" width="2" height="2" fill="#959BA4"/>
<rect x="9" y="13.0078" width="2" height="2" fill="#959BA4"/>
<rect x="9" y="16.9922" width="2" height="2" fill="#959BA4"/>
<rect x="13.0078" y="16.9922" width="2" height="2" fill="#959BA4"/>
<rect x="13.0078" y="13.0078" width="2" height="2" fill="#959BA4"/>
<rect x="10.9922" y="15" width="2" height="2" fill="#959BA4"/>
<rect x="15" y="15" width="2" height="2" fill="#959BA4"/>
<rect x="16.9922" y="16.9922" width="2" height="2" fill="#959BA4"/>
<rect x="4.99219" y="16.9922" width="2" height="2" fill="#959BA4"/>
<rect x="16.9922" y="13.0078" width="2" height="2" fill="#959BA4"/>
<rect x="4.99219" y="13.0078" width="2" height="2" fill="#959BA4"/>
</svg>
