<svg width="24" height="25" viewBox="0 0 24 25" fill="none" xmlns="http://www.w3.org/2000/svg">
<g filter="url(#filter0_d_2385_31329)">
<path d="M3.90918 10.4961C3.90918 6.76904 6.93896 3.73926 10.666 3.73926C14.3931 3.73926 17.4229 6.76904 17.4229 10.4961C17.4229 11.9487 16.9497 13.2935 16.1611 14.3809L19.9546 18.1826C20.1787 18.415 20.2949 18.7222 20.2949 19.0542C20.2949 19.7432 19.7886 20.2744 19.083 20.2744C18.7593 20.2744 18.4355 20.1665 18.2031 19.9258L14.3848 16.1074C13.3223 16.8296 12.0522 17.2529 10.666 17.2529C6.93896 17.2529 3.90918 14.2231 3.90918 10.4961ZM5.63574 10.4961C5.63574 13.2769 7.88525 15.5264 10.666 15.5264C13.4468 15.5264 15.6963 13.2769 15.6963 10.4961C15.6963 7.71533 13.4468 5.46582 10.666 5.46582C7.88525 5.46582 5.63574 7.71533 5.63574 10.4961Z" fill="#6F727C"/>
<path d="M3.90918 10.4961C3.90918 6.76904 6.93896 3.73926 10.666 3.73926C14.3931 3.73926 17.4229 6.76904 17.4229 10.4961C17.4229 11.9487 16.9497 13.2935 16.1611 14.3809L19.9546 18.1826C20.1787 18.415 20.2949 18.7222 20.2949 19.0542C20.2949 19.7432 19.7886 20.2744 19.083 20.2744C18.7593 20.2744 18.4355 20.1665 18.2031 19.9258L14.3848 16.1074C13.3223 16.8296 12.0522 17.2529 10.666 17.2529C6.93896 17.2529 3.90918 14.2231 3.90918 10.4961ZM5.63574 10.4961C5.63574 13.2769 7.88525 15.5264 10.666 15.5264C13.4468 15.5264 15.6963 13.2769 15.6963 10.4961C15.6963 7.71533 13.4468 5.46582 10.666 5.46582C7.88525 5.46582 5.63574 7.71533 5.63574 10.4961Z" fill="url(#paint0_linear_2385_31329)"/>
</g>
<defs>
<filter id="filter0_d_2385_31329" x="1.90625" y="3.73926" width="20.3906" height="20.5352" filterUnits="userSpaceOnUse" color-interpolation-filters="sRGB">
<feFlood flood-opacity="0" result="BackgroundImageFix"/>
<feColorMatrix in="SourceAlpha" type="matrix" values="0 0 0 0 0 0 0 0 0 0 0 0 0 0 0 0 0 0 127 0" result="hardAlpha"/>
<feOffset dy="2"/>
<feGaussianBlur stdDeviation="1"/>
<feComposite in2="hardAlpha" operator="out"/>
<feColorMatrix type="matrix" values="0 0 0 0 0 0 0 0 0 0 0 0 0 0 0 0 0 0 0.1 0"/>
<feBlend mode="normal" in2="BackgroundImageFix" result="effect1_dropShadow_2385_31329"/>
<feBlend mode="normal" in="SourceGraphic" in2="effect1_dropShadow_2385_31329" result="shape"/>
</filter>
<linearGradient id="paint0_linear_2385_31329" x1="12.5" y1="3.5" x2="12.5" y2="13" gradientUnits="userSpaceOnUse">
<stop stop-color="white" stop-opacity="0.3"/>
<stop offset="1" stop-color="white" stop-opacity="0"/>
</linearGradient>
</defs>
</svg>
