<svg width="24" height="24" viewBox="0 0 24 24" fill="none" xmlns="http://www.w3.org/2000/svg">
<path d="M16.7559 10.0892C16.4555 10.3896 15.9828 10.4127 15.6559 10.1586L15.5774 10.0892L12 6.51248L8.42259 10.0892C8.12219 10.3896 7.64949 10.4127 7.32258 10.1586L7.24408 10.0892C6.94368 9.78883 6.92057 9.31614 7.17475 8.98923L7.24408 8.91072L11.4107 4.74406C11.7111 4.44365 12.1838 4.42055 12.5107 4.67473L12.5893 4.74406L16.7559 8.91072C17.0814 9.23616 17.0814 9.7638 16.7559 10.0892Z" fill="#6F727C"/>
<path d="M7.24408 13.9108C7.54448 13.6104 8.01717 13.5873 8.34408 13.8414L8.42259 13.9108L12 17.4875L15.5774 13.9108C15.8778 13.6104 16.3505 13.5873 16.6774 13.8414L16.7559 13.9108C17.0563 14.2112 17.0794 14.6839 16.8252 15.0108L16.7559 15.0893L12.5893 19.2559C12.2889 19.5563 11.8162 19.5795 11.4893 19.3253L11.4107 19.2559L7.24408 15.0893C6.91864 14.7638 6.91864 14.2362 7.24408 13.9108Z" fill="#6F727C"/>
</svg>
