<svg width="16" height="16" viewBox="0 0 16 16" fill="none" xmlns="http://www.w3.org/2000/svg">
<path d="M7.22008 10.1068L3.86271 10.5417C3.74646 10.5487 3.57812 10.4654 3.5 10.3301C3.42188 10.1948 3.43396 10.0074 3.49813 9.91022L5.55342 7.22008L5.11856 3.86271C5.11158 3.74646 5.19481 3.57812 5.33013 3.5C5.46544 3.42188 5.65284 3.43396 5.75003 3.49813L8.44017 5.55342L11.7975 5.11856C11.9138 5.11158 12.0821 5.19481 12.1603 5.33013C12.2384 5.46544 12.2263 5.65284 12.1621 5.75003L10.1068 8.44017L10.5417 11.7975C10.5487 11.9138 10.4654 12.0821 10.3301 12.1603C10.1948 12.2384 10.0074 12.2263 9.91022 12.1621L7.22008 10.1068Z" fill="#959BA4"/>
</svg>
