<svg width="24" height="24" viewBox="0 0 24 24" fill="none" xmlns="http://www.w3.org/2000/svg">
<path d="M12 2C17.5228 2 22 6.47715 22 12C22 17.5228 17.5228 22 12 22C6.47715 22 2 17.5228 2 12C2 6.47715 6.47715 2 12 2ZM16.6504 8.24121C16.2311 7.88179 15.6006 7.93028 15.2412 8.34961L10.9434 13.5283L8.70703 11.293L8.61328 11.21C8.22099 10.9049 7.65345 10.9325 7.29297 11.293C6.90244 11.6835 6.90244 12.3165 7.29297 12.707L10.293 15.707L10.3848 15.7891C10.7995 16.1135 11.4068 16.0611 11.7588 15.6504L16.7588 9.65039L16.835 9.55078C17.109 9.13625 17.0375 8.57299 16.6504 8.24121Z" fill="#4CD964"/>
</svg>
