<svg width="24" height="24" viewBox="0 0 24 24" fill="none" xmlns="http://www.w3.org/2000/svg">
<path d="M14 2C15.1044 2.00021 16 2.89556 16 4V5H20C20.5523 5 21 5.44772 21 6C21 6.55228 20.5523 7 20 7H18.875L17.1064 20.2646C16.9738 21.2581 16.1263 22 15.124 22H8.875C7.87292 21.9997 7.02517 21.2579 6.89258 20.2646L5.12402 7H4C3.44772 7 3 6.55228 3 6C3 5.44772 3.44772 5 4 5H8V4C8 2.89556 8.89561 2.00021 10 2H14ZM8.875 20H15.124L16.8564 7H7.1416L8.875 20ZM10 3.5C9.75474 3.50019 9.55015 3.67707 9.50781 3.91016L9.5 4V5H14.5V4C14.5 3.75467 14.3229 3.5503 14.0898 3.50781L14 3.5H10Z" fill="#D94F74"/>
</svg>
