<svg width="16" height="16" viewBox="0 0 16 16" fill="none" xmlns="http://www.w3.org/2000/svg">
<path d="M9.33301 1.33337C10.0693 1.33337 10.6658 1.93015 10.666 2.66638V3.33337H13.333C13.7012 3.33337 14 3.63218 14 4.00037C13.9998 4.36841 13.7011 4.66638 13.333 4.66638H12.583L11.4043 13.5092C11.316 14.1715 10.7511 14.6662 10.083 14.6664H5.91699C5.24884 14.6663 4.68304 14.1715 4.59473 13.5092L3.41602 4.66638H2.66699C2.29891 4.66638 2.00018 4.36841 2 4.00037C2 3.63218 2.2988 3.33337 2.66699 3.33337H5.33301V2.66638C5.33318 1.93037 5.93004 1.33373 6.66602 1.33337H9.33301ZM5.91699 13.3334H10.083L11.2373 4.66638H4.76074L5.91699 13.3334ZM6.66602 2.33337C6.50267 2.33369 6.36608 2.45152 6.33789 2.60681L6.33301 2.66638V3.33337H9.66602V2.66638C9.66586 2.50289 9.54797 2.36646 9.39258 2.33826L9.33301 2.33337H6.66602Z" fill="white"/>
</svg>
