<svg width="24" height="24" viewBox="0 0 24 24" fill="none" xmlns="http://www.w3.org/2000/svg">
<path d="M18.2031 7C18.2031 6.33726 17.6657 5.7998 17.0029 5.7998H7.00293C6.34019 5.7998 5.80273 6.33726 5.80273 7V17C5.80273 17.6627 6.34019 18.2002 7.00293 18.2002H17.0029C17.6657 18.2002 18.2031 17.6627 18.2031 17V7ZM19.8027 17C19.8027 18.5464 18.5493 19.7998 17.0029 19.7998H7.00293C5.45653 19.7998 4.20312 18.5464 4.20312 17V7C4.20312 5.4536 5.45653 4.2002 7.00293 4.2002H17.0029C18.5493 4.2002 19.8027 5.4536 19.8027 7V17Z" fill="white"/>
</svg>
