<svg width="7" height="7" viewBox="0 0 7 7" fill="none" xmlns="http://www.w3.org/2000/svg">
<path fill-rule="evenodd" clip-rule="evenodd" d="M0.178595 0.186426C0.292985 0.0719457 0.448109 0.00763428 0.609855 0.00763428C0.771601 0.00763428 0.926725 0.0719457 1.04111 0.186426L3.35479 2.50264L5.66846 0.186426C5.72473 0.128102 5.79204 0.0815809 5.86646 0.0495771C5.94088 0.0175733 6.02092 0.00072764 6.10192 2.30565e-05C6.18291 -0.000681527 6.26323 0.0147689 6.3382 0.0454732C6.41316 0.0761774 6.48127 0.12152 6.53854 0.178856C6.59581 0.236192 6.64111 0.304373 6.67178 0.379421C6.70245 0.454468 6.71788 0.534879 6.71718 0.615961C6.71647 0.697043 6.69965 0.777173 6.66768 0.851675C6.63571 0.926178 6.58924 0.99356 6.53098 1.04989L4.21731 3.3661L6.53098 5.68232C6.64209 5.79749 6.70358 5.95174 6.70219 6.11185C6.7008 6.27196 6.63665 6.42512 6.52355 6.53834C6.41045 6.65156 6.25746 6.71579 6.09752 6.71718C5.93759 6.71857 5.78351 6.65702 5.66846 6.54578L3.35479 4.22957L1.04111 6.54578C0.92607 6.65702 0.771986 6.71857 0.61205 6.71718C0.452114 6.71579 0.299122 6.65156 0.186026 6.53834C0.0729297 6.42512 0.00877803 6.27196 0.00738822 6.11185C0.00599842 5.95174 0.0674817 5.79749 0.178595 5.68232L2.49227 3.3661L0.178595 1.04989C0.0642409 0.935376 0 0.780082 0 0.618158C0 0.456235 0.0642409 0.30094 0.178595 0.186426Z" fill="#3F3F49"/>
</svg>
