<svg width="512" height="489" viewBox="0 0 512 489" fill="none" xmlns="http://www.w3.org/2000/svg">
<path d="M384.016 244.521C417.96 244.521 450.512 257.418 474.514 280.341C498.515 303.264 512 334.353 512 366.771C511.998 399.186 498.514 430.28 474.514 453.201C450.513 476.119 417.956 489 384.016 489H0L256.031 244.521H384.016Z" fill="white"/>
<path d="M256.031 244.521H127.984C94.0351 244.504 61.486 231.612 37.4862 208.68C13.4879 185.748 -4.20562e-06 154.651 0 122.229C0.00225164 89.8141 13.4862 58.7203 37.4862 35.7993C61.4875 12.8787 94.0426 0.000389439 127.984 0H512L256.031 244.521Z" fill="white"/>
</svg>
